<?xml version="1.0" encoding="utf-8"?>
<!-- Generator: Adobe Illustrator 27.0.0, SVG Export Plug-In . SVG Version: 6.00 Build 0)  -->
<svg version="1.1" id="Layer_1" xmlns="http://www.w3.org/2000/svg" xmlns:xlink="http://www.w3.org/1999/xlink" x="0px" y="0px"
	 viewBox="0 0 125.2 92.2" style="enable-background:new 0 0 125.2 92.2;" xml:space="preserve">
<style type="text/css">
	.st0{display:none;fill:#010202;}
	.st1{fill:#9A9A99;}
	.st2{opacity:0.27;}
	.st3{fill:#272D37;}
	.st4{fill:#FFFFFF;}
	.st5{fill:#E30D18;}
	.st6{fill:url(#SVGID_1_);}
	.st7{opacity:0.25;fill:#F5F5F5;}
	.st8{fill:url(#SVGID_00000099640756650396482830000018029881791907365566_);}
</style>
<text transform="matrix(1 0 0 1 -2.8701 139.6152)" style="display:none;fill:#9A9A99; font-family:'HandelGothicBT-Regular'; font-size:13.3008px; letter-spacing:1;">Web Hosting</text>
<g>
	<rect y="7" class="st0" width="95.2" height="84.8"/>
	<polygon class="st1" points="65,91.8 95.2,91.8 95.2,7 28.2,7 	"/>
	<g class="st2">
		<path class="st3" d="M91.8,23.2c-3.1-5.6-7.2-9.2-12.5-11c-3.2-1-8.4-1.5-15.7-1.5H40.7L47,25h17.3c2.9,0,5.1,0.3,6.5,0.8
			c3.8,1.5,5.7,5,5.7,10.4c0,4.9-1.3,8.4-3.8,10.4c-1.7,1.3-4.6,2-8.8,2h-6.7l6.2,14.3h4.6c4.7,0,8.3-0.4,11-1.2
			c2.7-0.8,5.2-2.2,7.6-4.3c2.7-2.3,4.7-5.3,6.2-9c1.5-3.6,2.2-7.5,2.2-11.6C95.2,31.8,94,27.3,91.8,23.2z"/>
	</g>
	<g>
		<path class="st4" d="M92.5,21.5c-3.1-5.6-7.2-9.2-12.5-11C76.9,9.5,71.7,9,64.4,9H41.5l6.2,14.3h17.3c2.9,0,5.1,0.3,6.5,0.8
			c3.8,1.5,5.7,5,5.7,10.4c0,4.9-1.3,8.4-3.8,10.4c-1.7,1.3-4.6,2-8.8,2H58l6.2,14.3h4.6c4.7,0,8.3-0.4,11-1.2
			c2.7-0.8,5.2-2.2,7.6-4.3c2.7-2.3,4.7-5.3,6.2-9C95.2,43,96,39.1,96,35C96,30.1,94.8,25.6,92.5,21.5z"/>
	</g>
	<polygon class="st5" points="121.1,18.6 115.3,14 109.2,18.2 111.7,11.2 105.9,6.7 113.3,6.9 115.8,0 117.8,7.1 125.2,7.4 
		119.1,11.5 	"/>
	<polygon class="st5" points="17.5,10.2 0,52.1 0,91.8 2.5,91.8 26.6,33.5 	"/>
	<polygon class="st4" points="37.4,7 20.2,7 30.9,34.2 30.8,34.3 54.1,91.8 74.4,91.8 	"/>
	<path class="st5" d="M2.3,92.2c0,0,51-67.8,104.1-79.7c0,0-47.1,0.2-98.2,53.9"/>
	<linearGradient id="SVGID_1_" gradientUnits="userSpaceOnUse" x1="24.1561" y1="14.7816" x2="12.3048" y2="44.0682">
		<stop  offset="0.1758" style="stop-color:#E97E88"/>
		<stop  offset="1" style="stop-color:#E30D18"/>
	</linearGradient>
	<polygon class="st6" points="16.8,15 24.1,33.1 1.7,89 1.5,52 	"/>
	<path class="st7" d="M1.4,76.7c0,0,33.4-46.7,93.9-62.5c0,0-57.6,15.4-93.7,67.5"/>
	
		<linearGradient id="SVGID_00000008833989596851336800000000420972348469056386_" gradientUnits="userSpaceOnUse" x1="115.7569" y1="12.7745" x2="115.3877" y2="2.2468">
		<stop  offset="0" style="stop-color:#E97E88"/>
		<stop  offset="1" style="stop-color:#E30D18"/>
	</linearGradient>
	<path style="fill:url(#SVGID_00000008833989596851336800000000420972348469056386_);" d="M117.8,7.1l-2-7.1l-2.5,6.9l-7.4-0.3
		l1.6,1.3c3.1,0.7,7.4,1.8,11.6,3.7l0-0.2l6.1-4.1L117.8,7.1z"/>
</g>
<g style="display:none;">
</g>
</svg>
